<svg width="17" height="16" viewBox="0 0 17 16" fill="none" xmlns="http://www.w3.org/2000/svg">
<path d="M16 13.3333V14.2222C16 15.2 15.2 16 14.2222 16H1.77778C0.791111 16 0 15.2 0 14.2222V1.77778C0 0.8 0.791111 0 1.77778 0H14.2222C15.2 0 16 0.8 16 1.77778V2.66667H8C7.01333 2.66667 6.22222 3.46667 6.22222 4.44444V11.5556C6.22222 12.5333 7.01333 13.3333 8 13.3333H16ZM8 11.5556H16.8889V4.44444H8V11.5556ZM11.5556 9.33333C10.8178 9.33333 10.2222 8.73778 10.2222 8C10.2222 7.26222 10.8178 6.66667 11.5556 6.66667C12.2933 6.66667 12.8889 7.26222 12.8889 8C12.8889 8.73778 12.2933 9.33333 11.5556 9.33333Z" fill="white"/>
</svg>
