<svg width="10" height="16" viewBox="0 0 10 16" fill="none" xmlns="http://www.w3.org/2000/svg">
<path d="M4.87111 7.02222C2.85333 6.49778 2.20444 5.95556 2.20444 5.11111C2.20444 4.14222 3.10222 3.46667 4.60444 3.46667C6.18667 3.46667 6.77333 4.22222 6.82667 5.33333H8.79111C8.72889 3.80444 7.79556 2.4 5.93778 1.94667V0H3.27111V1.92C1.54667 2.29333 0.16 3.41333 0.16 5.12889C0.16 7.18222 1.85778 8.20444 4.33778 8.8C6.56 9.33333 7.00444 10.1156 7.00444 10.9422C7.00444 11.5556 6.56889 12.5333 4.60444 12.5333C2.77333 12.5333 2.05333 11.7156 1.95556 10.6667H0C0.106667 12.6133 1.56444 13.7067 3.27111 14.0711V16H5.93778V14.0889C7.67111 13.76 9.04889 12.7556 9.04889 10.9333C9.04889 8.40889 6.88889 7.54667 4.87111 7.02222Z" fill="white"/>
</svg>
